<?xml version="1.0" encoding="utf-8"?>
<!-- Generator: Adobe Illustrator 16.0.0, SVG Export Plug-In . SVG Version: 6.00 Build 0)  -->
<!DOCTYPE svg PUBLIC "-//W3C//DTD SVG 1.1//EN" "http://www.w3.org/Graphics/SVG/1.1/DTD/svg11.dtd">
<svg version="1.1" id="Calque_1" xmlns="http://www.w3.org/2000/svg" xmlns:xlink="http://www.w3.org/1999/xlink" x="0px" y="0px"
	 width="147.333px" height="174.056px" viewBox="0 0 147.333 174.056" enable-background="new 0 0 147.333 174.056"
	 xml:space="preserve">
<g>
	<defs>
		<rect id="SVGID_1_" x="-176.167" y="-125.006" width="500" height="500"/>
	</defs>
	<clipPath id="SVGID_2_">
		<use xlink:href="#SVGID_1_"  overflow="visible"/>
	</clipPath>
	<path clip-path="url(#SVGID_2_)" fill="#00BCD4" d="M24.578,150.901h-2.256v-14.13c0-4.886,3.975-8.86,8.861-8.86h23.743
		c4.062,0,7.366-3.304,7.366-7.366V96.406h2.256v24.139c0,5.305-4.316,9.622-9.622,9.622H31.183c-3.642,0-6.605,2.963-6.605,6.604
		V150.901z"/>
	<path clip-path="url(#SVGID_2_)" fill="#00BCD4" d="M29.179,150.901c0-3.164-2.565-5.728-5.728-5.728
		c-3.164,0-5.729,2.563-5.729,5.728s2.565,5.729,5.729,5.729C26.614,156.63,29.179,154.065,29.179,150.901"/>
	<path clip-path="url(#SVGID_2_)" fill="#00BCD4" d="M19.616,112.963v2.256h22.332c4.886,0,8.861-3.975,8.861-8.861V82.615
		c0-4.062,3.304-7.366,7.366-7.366h15.937v-2.256H58.175c-5.305,0-9.622,4.316-9.622,9.622v23.743c0,3.642-2.963,6.605-6.605,6.605
		H19.616z"/>
	<path clip-path="url(#SVGID_2_)" fill="#00BCD4" d="M19.616,108.362c3.164,0,5.728,2.565,5.728,5.728
		c0,3.164-2.564,5.729-5.728,5.729s-5.728-2.565-5.728-5.729C13.888,110.927,16.452,108.362,19.616,108.362"/>
	<path clip-path="url(#SVGID_2_)" fill="#00BCD4" d="M129.088,121.802v2.256h-22.332c-4.886,0-8.861-3.975-8.861-8.861V82.615
		c0-4.062-3.304-7.367-7.366-7.367H74.592v-2.256h15.937c5.306,0,9.622,4.317,9.622,9.623v32.582c0,3.642,2.963,6.605,6.605,6.605
		H129.088z"/>
	<path clip-path="url(#SVGID_2_)" fill="#00BCD4" d="M129.088,117.202c-3.164,0-5.729,2.565-5.729,5.728
		c0,3.164,2.564,5.729,5.729,5.729s5.728-2.565,5.728-5.729C134.816,119.767,132.252,117.202,129.088,117.202"/>
	<path clip-path="url(#SVGID_2_)" fill="#00BCD4" d="M132.508,155.951c0-3.164-2.565-5.729-5.728-5.729
		c-3.164,0-5.729,2.564-5.729,5.729s2.565,5.728,5.729,5.728C129.943,161.679,132.508,159.115,132.508,155.951"/>
	<path clip-path="url(#SVGID_2_)" fill="#00BCD4" d="M127.907,155.951h-2.256v-11.055c0-3.644-2.963-6.606-6.604-6.606H93.125
		c-5.307,0-9.622-4.317-9.622-9.622V96.406h2.256v32.262c0,4.063,3.304,7.366,7.366,7.366h25.921c4.886,0,8.86,3.975,8.86,8.862
		V155.951z"/>
	<path clip-path="url(#SVGID_2_)" fill="#00BCD4" d="M79.061,168.658c0-3.164-2.564-5.729-5.728-5.729
		c-3.164,0-5.729,2.564-5.729,5.729s2.565,5.728,5.729,5.728C76.497,174.386,79.061,171.822,79.061,168.658"/>
	<path clip-path="url(#SVGID_2_)" fill="#00BCD4" d="M72.205,166.445V90.667h2.255v75.778
		C74.46,170.088,72.205,171.332,72.205,166.445"/>
	<path clip-path="url(#SVGID_2_)" fill="#0A2540" d="M128.879,99.232H18.788c-10.276,0-18.606-8.33-18.606-18.605V18.606
		C0.182,8.331,8.512,0,18.788,0h110.092c10.276,0,18.605,8.331,18.605,18.606v62.021C147.485,90.902,139.156,99.232,128.879,99.232"
		/>
	<path clip-path="url(#SVGID_2_)" fill="#00BCD4" d="M124.518,88.484H23.149c-5.885,0-10.656-4.771-10.656-10.656V21.405
		c0-5.886,4.771-10.657,10.656-10.657h101.369c5.885,0,10.656,4.771,10.656,10.657v56.423
		C135.174,83.713,130.403,88.484,124.518,88.484"/>
	<path clip-path="url(#SVGID_2_)" fill="#17072B" d="M80.901,91.668H66.767c-0.845,0-1.53,0.685-1.53,1.529
		c0,0.845,0.685,1.529,1.53,1.529h14.134c0.845,0,1.528-0.684,1.528-1.529C82.429,92.353,81.746,91.668,80.901,91.668"/>
</g>
</svg>
